<?xml version="1.0" encoding="UTF-8"?>
<!DOCTYPE svg PUBLIC "-//W3C//DTD SVG 1.1//EN" "http://www.w3.org/Graphics/SVG/1.1/DTD/svg11.dtd">
<!-- Creator: CorelDRAW 2020 (64 Bit) -->
<svg xmlns="http://www.w3.org/2000/svg" xml:space="preserve" width="33.0595mm" height="38.83mm" version="1.1" style="shape-rendering:geometricPrecision; text-rendering:geometricPrecision; image-rendering:optimizeQuality; fill-rule:evenodd; clip-rule:evenodd"
viewBox="0 0 727.23 854.16"
 xmlns:xlink="http://www.w3.org/1999/xlink"
 xmlns:xodm="http://www.corel.com/coreldraw/odm/2003">
 <defs>
  <style type="text/css">
   <![CDATA[
    .fil0 {fill:#5E1B93}
   ]]>
  </style>
 </defs>
 <g id="Camada_x0020_1">
  <metadata id="CorelCorpID_0Corel-Layer"/>
  <path class="fil0" d="M330.38 1.45l132.9 2.92c-104.54,104.82 -209.09,209.64 -313.63,314.47 -32.78,32.86 -68.46,54.31 -49.32,106.49 16.61,45.27 48.44,40.79 86.97,40.79l73.73 0c-31.04,33.3 -62.57,67.57 -93.61,100.88 -94.71,-1.15 -161.51,-70.01 -166.93,-154.07 -5.69,-88.31 39.79,-120.45 95.27,-176.11l234.63 -235.36zm66.47 851.25l-132.9 -2.92c104.54,-104.82 209.09,-209.64 313.63,-314.47 32.78,-32.86 68.46,-54.31 49.32,-106.49 -16.61,-45.27 -48.44,-40.79 -86.97,-40.79l-73.73 0c31.04,-33.3 62.57,-67.57 93.61,-100.88 94.71,1.15 161.51,70.01 166.93,154.07 5.69,88.31 -39.79,120.45 -95.27,176.11l-234.63 235.36zm-11.16 -381.71l132.9 1.94 -376.37 381.22 -139.69 0 383.16 -383.16zm-44.14 -87.84l-132.9 -1.94 376.37 -381.22 139.69 0 -383.16 383.16z"/>
 </g>
</svg>
