<?xml version="1.0" encoding="UTF-8"?>
<!DOCTYPE svg PUBLIC "-//W3C//DTD SVG 1.1//EN" "http://www.w3.org/Graphics/SVG/1.1/DTD/svg11.dtd">
<!-- Creator: CorelDRAW 2020 (64 Bit) -->
<svg xmlns="http://www.w3.org/2000/svg" xml:space="preserve" width="30.2956mm" height="35.5837mm" version="1.1" style="shape-rendering:geometricPrecision; text-rendering:geometricPrecision; image-rendering:optimizeQuality; fill-rule:evenodd; clip-rule:evenodd"
viewBox="0 0 3029.56 3558.37"
 xmlns:xlink="http://www.w3.org/1999/xlink"
 xmlns:xodm="http://www.corel.com/coreldraw/odm/2003">
 <defs>
  <style type="text/css">
   <![CDATA[
    .fil0 {fill:#FEFEFE}
   ]]>
  </style>
 </defs>
 <g id="Camada_x0020_1">
  <metadata id="CorelCorpID_0Corel-Layer"/>
  <path class="fil0" d="M1376.33 6.08l553.65 12.17c-435.5,436.67 -871.05,873.34 -1306.56,1310.05 -136.56,136.89 -285.2,226.25 -205.47,443.63 69.2,188.6 201.81,169.93 362.31,169.93l307.15 0c-129.31,138.73 -260.66,281.49 -389.97,420.26 -394.56,-4.79 -672.84,-291.65 -695.42,-641.84 -23.71,-367.89 165.76,-501.78 396.88,-733.66l977.46 -980.49 -0.03 -0.05zm276.9 3546.25l-553.65 -12.16c435.5,-436.67 871.05,-873.34 1306.56,-1310.05 136.56,-136.9 285.2,-226.26 205.47,-443.64 -69.2,-188.59 -201.81,-169.92 -362.31,-169.92l-307.15 0c129.31,-138.73 260.66,-281.5 389.97,-420.27 394.56,4.8 672.84,291.66 695.42,641.84 23.71,367.89 -165.76,501.79 -396.88,733.67l-977.46 980.49 0.03 0.04zm-46.49 -1590.18l553.66 8.08 -1567.94 1588.14 -581.93 0 1596.22 -1596.22 -0.01 0zm-183.88 -365.93l-553.66 -8.08 1567.93 -1588.14 581.94 0 -1596.22 1596.22 0.01 0z"/>
 </g>
</svg>
